<?xml version="1.0" encoding="UTF-8"?>
<svg id="Layer_1" data-name="Layer 1" xmlns="http://www.w3.org/2000/svg" viewBox="0 0 20 14">
  <defs>
    <style>
      .cls-1 {
        fill: #8678a5;
      }
    </style>
  </defs>
  <path class="cls-1" d="M4,0c-1.1,0-2,.9-2,2V10h2V2h12V10h2V2c0-1.1-.9-2-2-2H4ZM.6,11c-.33,0-.6,.27-.6,.6,0,1.32,1.08,2.4,2.4,2.4h15.2c1.33,0,2.4-1.07,2.4-2.4,0-.33-.27-.6-.6-.6H.6Z"/>
  <path class="cls-1" d="M10,2.88c-.1,0-.21,.02-.3,.05l-3.57,1.29c-.12,.04-.2,.16-.2,.29s.08,.24,.2,.29l.74,.27c-.21,.33-.33,.72-.33,1.13v.36c0,.36-.14,.74-.28,1.03-.08,.17-.18,.33-.29,.48-.04,.05-.05,.13-.03,.19,.02,.06,.08,.11,.14,.13l.82,.2c.05,.01,.11,0,.16-.03s.08-.08,.09-.13c.11-.55,.05-1.03-.03-1.38-.04-.18-.1-.37-.17-.54v-.31c0-.38,.13-.75,.36-1.04,.16-.2,.38-.36,.63-.45l2-.79c.1-.04,.22,.01,.26,.11s-.01,.22-.11,.26l-2,.79c-.16,.06-.3,.16-.41,.28l2.03,.73c.1,.03,.2,.05,.3,.05s.21-.02,.3-.05l3.57-1.29c.12-.04,.2-.16,.2-.29s-.08-.24-.2-.29l-3.57-1.29c-.1-.03-.2-.05-.3-.05Zm-2.45,4.79c0,.45,1.1,.92,2.45,.92s2.45-.47,2.45-.92l-.19-1.85-1.81,.65c-.14,.05-.29,.08-.44,.08s-.3-.03-.44-.08l-1.81-.65-.19,1.85Z"/>
</svg>