<svg width="169" height="179" viewBox="0 0 169 179" fill="none" xmlns="http://www.w3.org/2000/svg">
<mask id="path-1-inside-1_6_11" fill="white">
<path d="M52 165.5C52 159.656 50.849 153.87 48.6126 148.471C46.3763 143.072 43.0985 138.166 38.9663 134.034C34.834 129.902 29.9284 126.624 24.5294 124.387C19.1304 122.151 13.3438 121 7.5 121L7.5 165.5H52Z"/>
</mask>
<path d="M52 165.5C52 159.656 50.849 153.87 48.6126 148.471C46.3763 143.072 43.0985 138.166 38.9663 134.034C34.834 129.902 29.9284 126.624 24.5294 124.387C19.1304 122.151 13.3438 121 7.5 121L7.5 165.5H52Z" stroke="white" stroke-width="2" mask="url(#path-1-inside-1_6_11)"/>
<rect x="8" y="14" width="151" height="151" stroke="white"/>
<path d="M7.18359 175H4.65234V174.695H5.41406L4.53516 172.422H2.08594L1.20703 174.695H1.78125C1.82031 174.695 1.85938 174.699 1.89844 174.707C2.02344 174.73 2.08594 174.828 2.08594 175H0V174.695H0.738281L3.36328 167.969H3.79688L6.48047 174.695H6.87891C6.91797 174.695 6.95703 174.699 6.99609 174.707C7.12109 174.73 7.18359 174.828 7.18359 175ZM4.40625 172.082L3.30469 169.246L2.21484 172.082H4.40625Z" fill="white"/>
<path d="M28.276 146.12C27.764 146.12 27.312 145.996 26.92 145.748C26.528 145.5 26.22 145.132 25.996 144.644C25.772 144.148 25.66 143.536 25.66 142.808C25.66 141.72 25.896 140.888 26.368 140.312C26.848 139.736 27.5 139.448 28.324 139.448C28.628 139.448 28.904 139.492 29.152 139.58C29.4 139.66 29.62 139.776 29.812 139.928C30.012 140.072 30.18 140.244 30.316 140.444H30.364L30.52 139.568H31.36V144.584C31.36 144.832 31.408 145.008 31.504 145.112C31.6 145.208 31.716 145.256 31.852 145.256C31.916 145.256 31.984 145.248 32.056 145.232C32.128 145.216 32.18 145.204 32.212 145.196V145.964C32.172 145.988 32.116 146.012 32.044 146.036C31.972 146.06 31.892 146.08 31.804 146.096C31.716 146.112 31.628 146.12 31.54 146.12C31.244 146.12 30.996 146.048 30.796 145.904C30.604 145.76 30.464 145.504 30.376 145.136H30.292C30.164 145.328 30.004 145.5 29.812 145.652C29.62 145.796 29.396 145.912 29.14 146C28.884 146.08 28.596 146.12 28.276 146.12ZM28.492 145.244C28.932 145.244 29.284 145.16 29.548 144.992C29.82 144.824 30.016 144.564 30.136 144.212C30.256 143.86 30.316 143.412 30.316 142.868V142.796C30.316 141.996 30.18 141.384 29.908 140.96C29.644 140.536 29.168 140.324 28.48 140.324C27.896 140.324 27.46 140.54 27.172 140.972C26.892 141.396 26.752 142.012 26.752 142.82C26.752 143.62 26.9 144.224 27.196 144.632C27.492 145.04 27.924 145.244 28.492 145.244Z" fill="white"/>
<path d="M0.46875 2.96875H3.73828C4.53516 2.96875 5.23438 3.15625 5.83594 3.53125C6.82031 4.15625 7.3125 5.14062 7.3125 6.48438C7.3125 7.52344 6.97656 8.36719 6.30469 9.01562C5.625 9.67188 4.75781 10 3.70312 10H0.46875V9.69531H1.40625V3.27344H0.46875V2.96875ZM3.70312 3.27344H2.41406V9.69531H3.73828C3.89453 9.69531 4.04688 9.68359 4.19531 9.66016C5.52344 9.45703 6.1875 8.38281 6.1875 6.4375C6.1875 5.86719 6.12891 5.375 6.01172 4.96094C5.70703 3.83594 4.9375 3.27344 3.70312 3.27344Z" fill="white"/>
<path d="M167.582 92.1172C167.035 92.1094 166.715 91.7578 166.621 91.0625C166.551 91.2266 166.445 91.3828 166.305 91.5312C165.914 91.9219 165.434 92.1172 164.863 92.1172C164.629 92.1172 164.406 92.0742 164.195 91.9883C163.672 91.7695 163.41 91.3633 163.41 90.7695C163.41 90.5977 163.434 90.4375 163.48 90.2891C163.746 89.5234 164.797 89.1406 166.633 89.1406V88.4023C166.609 87.6445 166.23 87.2422 165.496 87.1953C165.184 87.1953 164.953 87.293 164.805 87.4883C164.766 87.543 164.691 87.7148 164.582 88.0039C164.496 88.2305 164.363 88.3438 164.184 88.3438C164.145 88.3438 164.105 88.3398 164.066 88.332C163.84 88.293 163.727 88.1523 163.727 87.9102C163.727 87.7773 163.773 87.6445 163.867 87.5117C164.164 87.1055 164.75 86.9023 165.625 86.9023C165.695 86.9023 165.766 86.9023 165.836 86.9023C166.953 86.9648 167.512 87.5547 167.512 88.6719V91.1445C167.52 91.5352 167.625 91.7383 167.828 91.7539C168.078 91.7461 168.23 91.457 168.285 90.8867L168.59 90.8984C168.59 90.9375 168.586 90.9805 168.578 91.0273C168.516 91.7539 168.184 92.1172 167.582 92.1172ZM165.25 91.6484C165.422 91.6484 165.598 91.6094 165.777 91.5312C166.23 91.3125 166.516 90.9336 166.633 90.3945V89.457C166.023 89.4648 165.559 89.5039 165.238 89.5742C164.637 89.7148 164.336 90.0469 164.336 90.5703C164.336 90.7031 164.348 90.8242 164.371 90.9336C164.48 91.4102 164.773 91.6484 165.25 91.6484Z" fill="white"/>
<path d="M84.582 175.117C84.0352 175.109 83.7148 174.758 83.6211 174.062C83.5508 174.227 83.4453 174.383 83.3047 174.531C82.9141 174.922 82.4336 175.117 81.8633 175.117C81.6289 175.117 81.4062 175.074 81.1953 174.988C80.6719 174.77 80.4102 174.363 80.4102 173.77C80.4102 173.598 80.4336 173.438 80.4805 173.289C80.7461 172.523 81.7969 172.141 83.6328 172.141V171.402C83.6094 170.645 83.2305 170.242 82.4961 170.195C82.1836 170.195 81.9531 170.293 81.8047 170.488C81.7656 170.543 81.6914 170.715 81.582 171.004C81.4961 171.23 81.3633 171.344 81.1836 171.344C81.1445 171.344 81.1055 171.34 81.0664 171.332C80.8398 171.293 80.7266 171.152 80.7266 170.91C80.7266 170.777 80.7734 170.645 80.8672 170.512C81.1641 170.105 81.75 169.902 82.625 169.902C82.6953 169.902 82.7656 169.902 82.8359 169.902C83.9531 169.965 84.5117 170.555 84.5117 171.672V174.145C84.5195 174.535 84.625 174.738 84.8281 174.754C85.0781 174.746 85.2305 174.457 85.2852 173.887L85.5898 173.898C85.5898 173.938 85.5859 173.98 85.5781 174.027C85.5156 174.754 85.1836 175.117 84.582 175.117ZM82.25 174.648C82.4219 174.648 82.5977 174.609 82.7773 174.531C83.2305 174.312 83.5156 173.934 83.6328 173.395V172.457C83.0234 172.465 82.5586 172.504 82.2383 172.574C81.6367 172.715 81.3359 173.047 81.3359 173.57C81.3359 173.703 81.3477 173.824 81.3711 173.934C81.4805 174.41 81.7734 174.648 82.25 174.648Z" fill="white"/>
<path d="M165.422 8.46094C164.703 8.89062 163.949 9.10938 163.16 9.11719C162.082 9.11719 161.207 8.75781 160.535 8.03906C159.902 7.34375 159.586 6.48438 159.586 5.46094C159.586 4.61719 159.812 3.87109 160.266 3.22266C160.922 2.30859 161.867 1.85156 163.102 1.85156C163.477 1.85156 163.844 1.89453 164.203 1.98047C164.75 2.12109 165.137 2.30469 165.363 2.53125C165.363 2.32031 165.375 2.16797 165.398 2.07422C165.438 1.96484 165.543 1.91016 165.715 1.91016L165.75 4.06641H165.469C165.414 3.89453 165.348 3.72656 165.27 3.5625C164.832 2.64063 164.125 2.17969 163.148 2.17969C162.719 2.17969 162.328 2.28906 161.977 2.50781C161.172 3.03125 160.77 4.02344 160.77 5.48438C160.77 6.16406 160.859 6.75391 161.039 7.25391C161.406 8.27734 162.098 8.78906 163.113 8.78906C164.309 8.78125 165.105 8.13281 165.504 6.84375H165.785V9.05859C165.691 9.05859 165.617 9.04688 165.562 9.02344C165.469 8.97656 165.422 8.78906 165.422 8.46094Z" fill="white"/>
<path d="M164.93 169.562C164.93 169.734 164.891 169.914 164.812 170.102C164.602 170.602 164.215 170.957 163.652 171.168C163.988 171.23 164.285 171.336 164.543 171.484C165.098 171.828 165.375 172.312 165.375 172.938C165.375 173.336 165.254 173.703 165.012 174.039C164.543 174.68 163.805 175 162.797 175H159.469V174.695H160.406V168.273H159.469V167.969H162.762C163.277 167.969 163.719 168.059 164.086 168.238C164.648 168.527 164.93 168.969 164.93 169.562ZM162.48 168.273H161.414V171.027H162.457C162.77 171.027 163.043 170.953 163.277 170.805C163.676 170.547 163.875 170.164 163.875 169.656C163.875 169.547 163.867 169.441 163.852 169.34C163.742 168.629 163.285 168.273 162.48 168.273ZM162.68 171.344H161.414V174.695H162.738C163.098 174.695 163.406 174.586 163.664 174.367C164.055 174.031 164.25 173.562 164.25 172.961C164.25 172.703 164.203 172.465 164.109 172.246C163.867 171.645 163.391 171.344 162.68 171.344Z" fill="white"/>
</svg>
